<?xml version="1.0" standalone="no"?>
<!DOCTYPE svg PUBLIC "-//W3C//DTD SVG 20010904//EN"
 "http://www.w3.org/TR/2001/REC-SVG-20010904/DTD/svg10.dtd">
<svg version="1.0" xmlns="http://www.w3.org/2000/svg"
 width="100.000000pt" height="100.000000pt" viewBox="0 0 100.000000 100.000000"
 preserveAspectRatio="xMidYMid meet">

<g transform="translate(0.000000,100.000000) scale(0.100000,-0.100000)"
fill="#000000" stroke="none">
<path d="M180 900 c-15 -15 -20 -33 -20 -79 0 -51 -3 -59 -21 -64 -41 -11 -14
-32 41 -32 56 0 82 21 41 32 -20 5 -22 11 -19 62 l3 56 295 0 295 0 0 -375 0
-375 -295 0 -295 0 -3 48 c-3 39 -6 47 -23 47 -16 0 -19 -7 -19 -50 0 -37 5
-55 20 -70 19 -19 33 -20 320 -20 287 0 301 1 320 20 19 19 20 33 20 400 0
367 -1 381 -20 400 -19 19 -33 20 -320 20 -287 0 -301 -1 -320 -20z"/>
<path d="M324 747 c-2 -7 -3 -69 -2 -138 l3 -124 195 0 195 0 0 135 0 135
-193 3 c-153 2 -194 0 -198 -11z m356 -127 l0 -100 -160 0 -160 0 0 100 0 100
160 0 160 0 0 -100z"/>
<path d="M400 660 c0 -19 7 -20 120 -20 113 0 120 1 120 20 0 19 -7 20 -120
20 -113 0 -120 -1 -120 -20z"/>
<path d="M400 580 c0 -19 7 -20 120 -20 113 0 120 1 120 20 0 19 -7 20 -120
20 -113 0 -120 -1 -120 -20z"/>
<path d="M160 671 c0 -21 -6 -30 -21 -34 -41 -11 -14 -32 41 -32 55 0 82 21
41 32 -15 4 -21 13 -21 34 0 22 -5 29 -20 29 -15 0 -20 -7 -20 -29z"/>
<path d="M160 551 c0 -21 -6 -30 -21 -34 -41 -11 -14 -32 41 -32 55 0 82 21
41 32 -15 4 -21 13 -21 34 0 22 -5 29 -20 29 -15 0 -20 -7 -20 -29z"/>
<path d="M160 431 c0 -21 -6 -30 -21 -34 -41 -11 -14 -32 41 -32 55 0 82 21
41 32 -15 4 -21 13 -21 34 0 22 -5 29 -20 29 -15 0 -20 -7 -20 -29z"/>
<path d="M160 311 c0 -21 -6 -30 -21 -34 -41 -11 -14 -32 41 -32 55 0 82 21
41 32 -15 4 -21 13 -21 34 0 22 -5 29 -20 29 -15 0 -20 -7 -20 -29z"/>
</g>
</svg>
