<?xml version="1.0" encoding="utf-8"?>
<!-- Generator: Adobe Illustrator 16.0.0, SVG Export Plug-In . SVG Version: 6.00 Build 0)  -->
<!DOCTYPE svg PUBLIC "-//W3C//DTD SVG 1.1//EN" "http://www.w3.org/Graphics/SVG/1.1/DTD/svg11.dtd">
<svg version="1.1" id="レイヤー_1" xmlns="http://www.w3.org/2000/svg" xmlns:xlink="http://www.w3.org/1999/xlink" x="0px"
	 y="0px" width="300px" height="80px" viewBox="0 0 300 80" enable-background="new 0 0 300 80" xml:space="preserve">
<g id="レイヤー_1_2_">
	<g id="レイヤー_1_1_">
	</g>
</g>
<g>
	<path d="M60.504,26.742c-0.202-0.134-0.448-0.216-0.711-0.216h-1.312V15.865h2.691c0.641,0,1.232-0.438,1.335-1.065
		c0.128-0.806-0.486-1.499-1.267-1.499h-11v-1.507c0-0.869-0.625-1.661-1.488-1.746c-0.992-0.102-1.832,0.678-1.832,1.651v1.602
		H36.773c-0.639,0-1.231,0.438-1.333,1.068c-0.132,0.803,0.485,1.496,1.265,1.496h1.85v10.661h-1.797
		c-0.708,0-1.283,0.572-1.283,1.281c0,0.03,0.007,0.06,0.011,0.09c-0.03,0.119-0.049,0.246-0.049,0.379v10.568
		c0,0.854,0.614,1.629,1.463,1.719c0.977,0.096,1.799-0.668,1.799-1.625v-9.851h19.635v9.758c0,0.853,0.615,1.628,1.465,1.718
		c0.977,0.097,1.799-0.668,1.799-1.625V28.274C61.596,27.565,61.139,26.968,60.504,26.742 M41.933,20.353h13.169v1.838H41.933
		V20.353z M55.101,17.789H41.932v-1.925h13.169V17.789z M41.933,24.75h13.169v1.776H41.933V24.75z"/>
	<path d="M54.691,31.06H42.517c-0.631,0-1.204,0.405-1.204,1.168v6.152c0,0.994,0.808,1.803,1.802,1.803
		c0.967,0,1.748-0.763,1.794-1.716h7.186c0.047,0.953,0.829,1.716,1.794,1.716c0.996,0,1.803-0.809,1.803-1.803
		c0,0,0.004-5.086,0.004-6.175C55.696,31.481,55.389,31.06,54.691,31.06 M44.916,33.658h7.168v2.206h-7.168V33.658z"/>
	<path d="M61.224,61.313h-5.186v-1.916l2.216-0.012c0.547,0,0.987-0.438,0.987-0.984v-9.277c0-0.546-0.456-0.946-1.001-0.946
		l-8.003-0.015v-2.067h9.896c0.667,0,1.208-0.542,1.208-1.209c0-0.668-0.542-1.21-1.208-1.21h-9.896v-1.172
		c0-0.934-0.757-1.689-1.689-1.689c-0.934,0-1.69,0.76-1.69,1.689v1.172h-9.793c-0.667,0-1.21,0.542-1.21,1.21
		c0,0.667,0.542,1.209,1.21,1.209h9.794v2.067l-7.999,0.015c-0.546,0-0.98,0.4-0.98,0.946v9.277c0,0.548,0.442,0.984,0.987,0.984
		l13.705,0.012v1.916H44.42l-0.108-0.494c-0.19-0.864-1.042-1.41-1.909-1.221c-0.799,0.176-1.317,0.924-1.243,1.715h-5.632
		c-0.693,0-1.252,0.562-1.252,1.252c0,0.689,0.56,1.254,1.252,1.254h6.166l0.639,2.897c0.19,0.865,1.045,1.411,1.91,1.224
		c0.863-0.188,1.409-1.049,1.22-1.906l-0.486-2.217h7.598v2.418c0,0.789-1.048,0.988-1.75,0.988c-0.7,0-2.243-0.175-2.243,1.256
		c0,1.43,1.166,1.481,2.535,1.481c1.368,0,4.922-0.319,4.922-3.262v-2.884h5.187c0.691,0,1.254-0.563,1.254-1.258
		C62.476,61.872,61.914,61.313,61.224,61.313 M46.859,56.979h-5.163v-2.01h5.163V56.979z M46.859,52.551h-5.163v-1.969h5.163V52.551
		z M55.428,56.979H50.24v-2.01h5.188V56.979z M55.428,52.551H50.24v-1.969h5.188V52.551z"/>
	<path fill="#A64300" d="M60.6,51.17l0.023-3.483c0,0,1.32-1.004,1.408-2.556c0.111-1.659-0.632-2.315-0.632-2.315l0.01-2.03
		c0,0,2.085,1.159,2.085,4.437C63.494,48.035,61.693,50.069,60.6,51.17"/>
	<path fill="#A64300" d="M64.282,44.081c0,0-0.846-2.112-0.846-3.162c0-1.398,0.846-4.377,3.118-6.167
		c1.55,1.003,2.359,2.84,2.469,3.562c0.108,0.722,0.298,1.828-0.459,2.772C67.871,41.954,65.14,43.612,64.282,44.081"/>
	<path fill="#A64300" d="M64.349,44.562c0,0,4.457-2.6,5.245-3.604c0.697,1.354,0.924,4.076,0.139,5.322
		c-0.787,1.244-2.476,1.516-3.438,1.711c-0.963,0.193-2.353,0.416-2.637,0.416C64.093,47.431,64.369,45.394,64.349,44.562"/>
	<path fill="#A64300" d="M63.437,48.96c0,0,5.915-0.925,6.637-1.493c-0.35,1.836-1.005,3.979-2.228,4.853
		c-1.227,0.875-2.267,0.772-3.01,0.664s-3.469-0.857-3.729-0.988C62.222,50.92,63.263,49.438,63.437,48.96"/>
	<path fill="#A64300" d="M60.598,52.368c0,0,4.472,1.72,7.005,1.254c-1.178,1.896-2.11,2.863-2.768,2.973
		c-0.655,0.106-1.465-0.008-2.331-0.292c-0.802-0.264-1.894-0.771-1.894-0.771L60.598,52.368z"/>
	<path fill="#A64300" d="M60.626,56.127c0,0,2.478,1.083,3.569,1.238c-0.831,0.961-2.382,2.12-3.583,2.491
		C60.613,57.585,60.626,56.127,60.626,56.127"/>
	<path fill="#A64300" d="M70.489,39.711c0,0-1.312-3.541-1.421-3.757c-0.108-0.221-0.087-1.336,0.307-2.251
		c0.395-0.919,3.016-5.397,3.016-5.397s2.601,3.649,2.729,4c0.129,0.352,0.285,1.702-0.174,2.428
		C74.489,35.449,72.323,38.271,70.489,39.711"/>
	<path fill="#A64300" d="M76.111,34.655c0,0,1.326,3.046,1.435,3.462c0.109,0.413,0.158,1.915-0.997,2.92
		c-1.159,1.004-5.112,3.394-5.508,3.522c-0.063-1.553-0.269-3.779-0.442-4.219C71.887,39.405,75.149,36.668,76.111,34.655"/>
	<path fill="#A64300" d="M78.004,40.687c0,0,0.438,3.006,0.283,4.053c-0.151,1.049-0.697,1.922-1.878,2.578
		c-1.179,0.652-3.998,1.602-5.805,1.994c0.307-1.66,0.418-3.684,0.475-3.983C71.577,45.295,77.061,42.017,78.004,40.687"/>
	<path fill="#A64300" d="M70.517,49.924c0,0,5.827-1.43,7.51-2.649c-0.351,2.355-0.676,4.303-1.485,5.154s-1.342,1.129-2.762,1.193
		c-1.419,0.062-4.385-0.051-4.866-0.117C69.49,52.56,70.379,50.832,70.517,49.924"/>
	<path fill="#A64300" d="M68.566,54.03c0,0,5.462,0.361,7.713-0.098c-1.026,2.229-1.179,3.715-3.276,4.305
		c-2.099,0.59-3.321,0.152-4.13-0.064c-0.808-0.217-2.491-0.676-2.797-0.918C67.166,56.317,68.455,54.334,68.566,54.03"/>
	<path fill="#A64300" d="M65.701,57.67c0,0,4.262,1.729,7.671,1.511c-2.099,2.579-3.347,3.897-5.332,3.232
		c-1.878-0.63-4.333-2.186-4.85-2.73C63.976,59.024,65.243,58.194,65.701,57.67"/>
	<path fill="#A64300" d="M62.491,59.987c0,0,3.583,2.754,6.729,3.32c-1.901,1.855-3.605,3.037-4.938,2.885
		c-1.333-0.15-1.901-0.371-2.884-1.615c1.441-0.545,1.966-1.419,1.966-2.314C63.365,61.364,62.491,59.987,62.491,59.987"/>
	<path fill="#A64300" d="M57.705,65.124c0,0,2.667-0.043,3.081-0.309c1.138,0.828,1.419,1.377,3.255,1.965
		c-1.943,1.227-4.457,2.314-7.102,1.967C57.333,67.481,57.705,65.124,57.705,65.124"/>
	<path fill="#A64300" d="M36.183,41.853c0,0-2.645,3.312,0.612,5.822c0,0.983-0.013,4.283-0.013,4.283s-6.15-4.906-1.933-11.701
		C35.745,41.284,36.183,41.853,36.183,41.853"/>
	<path fill="#A64300" d="M36.774,54.175v5.409c0,0-3.431,0.054-5.312-2.743C33.3,56.755,36.725,54.431,36.774,54.175"/>
	<path fill="#A64300" d="M30.72,33.919c0,0,2.47,5.092,2.579,5.377c0.107,0.284,0.479,1.201,0.13,1.944
		c-0.35,0.739-0.816,2.186-0.816,2.186s-4.341-3.649-4.624-4.149C27.705,38.772,27.355,37.065,30.72,33.919"/>
	<path fill="#A64300" d="M27.443,39.517c0.896,1.18,3.351,3.282,5.055,4.375c-0.032,1.924,0.067,2.867,0.146,3.053
		c-2.993-0.635-5.95-2.019-6.146-3.459C26.299,42.03,26.876,40.213,27.443,39.517"/>
	<path fill="#A64300" d="M26.415,44.999c0,0,3.451,1.922,6.292,2.357c0.722,1.793,1.901,3.586,1.901,3.586
		c-2.972,0.367-5.768,0.281-6.992-1.051C26.394,48.56,26.176,45.828,26.415,44.999"/>
	<path fill="#A64300" d="M27.72,50.882c0,0,2.65,1.154,7.043,0.436c1.047,1.195,2.01,2.203,2.01,2.203s-3.023,2.728-5.208,2.551
		C29.279,55.442,28.099,52.69,27.72,50.882"/>
	<path fill="#A64300" d="M24.923,28.423c0,0,2.359,4.545,2.449,4.776c0.086,0.231,0.932,2.01,0.524,3.028
		c-0.407,1.021-1.604,3.029-1.604,3.029s-3.494-3.758-4.049-5.097c-0.562-1.361-0.204-2.624,0.554-3.789
		C23.554,29.208,24.923,28.423,24.923,28.423"/>
	<path fill="#A64300" d="M21.049,33.812c0,0,2.855,4.282,5.04,6.119c-0.415,1.424-0.655,3.627-0.655,3.627s-4.821-2.314-5.667-3.654
		C18.924,38.565,19.358,36.024,21.049,33.812"/>
	<path fill="#A64300" d="M18.659,40.222c0,0,5.375,3.598,6.817,4.123c-0.06,1.95,0.204,3.598,0.204,3.598s-4.896-0.785-6.206-1.951
		C18.134,44.797,18.106,42.959,18.659,40.222"/>
	<path fill="#A64300" d="M18.485,46.833c0,0,6.278,1.633,7.21,1.661c0.291,1.458,0.714,2.712,1.151,3.672
		c-2.887,0.202-5.348,0.349-7.14-0.582C17.895,50.64,18.485,46.833,18.485,46.833"/>
	<path fill="#A64300" d="M19.942,52.862c0,0,5.243,0.091,7.196-0.202c1.193,1.924,2.01,3.307,2.01,3.307s-3.671,1.398-5.271,1.384
		C22.321,57.335,20.698,56.563,19.942,52.862"/>
	<path fill="#A64300" d="M22.285,58.108c2.578-0.043,5.052-0.678,7.298-1.777c1.603,1.572,3.116,2.71,3.116,2.71
		s-3.116,2.651-5.097,2.769C25.621,61.926,23.073,59.465,22.285,58.108"/>
	<path fill="#A64300" d="M26.905,63.089c0,0,4.661-2.184,6.234-3.727c0.496,0.435,0.989,0.669,0.989,0.669s-1.019,0.729-1.047,2.157
		c-0.028,1.424,0.845,2.035,1.398,2.302c-1.079,1.018-1.749,2.007-3.905,1.515C28.419,65.509,26.905,63.089,26.905,63.089"/>
	<path fill="#A64300" d="M35.061,64.839c0,0,4.371,0.377,5.011,0.406c-0.846,1.546-1.601,2.824-2.301,3.088
		c-0.699,0.264-2.855,0.407-5.011-1.282C34.129,66.005,35.061,64.839,35.061,64.839"/>
	<path fill="#A64300" d="M40.509,65.828c0,0,0.903,2.42,2.126,3.004c1.223,0.581,2.681,0.496,4.486-0.646
		c0.174,1.166,0.028,1.604,0.028,1.604s-6.118,0.233-8.769-0.788C39.286,68.015,40.393,66.44,40.509,65.828"/>
</g>
<g>
	<g>
		<path d="M94.238,30.226h37.744v7.25H94.238V30.226z"/>
		<path d="M143.527,16.092h16.97v14.701h-10.813v22.72h-6.155L143.527,16.092L143.527,16.092z M149.682,20.467v1.619h4.94v-1.619
			H149.682z M149.682,25.245v1.621h4.94v-1.621H149.682z M168.069,52.217c-1.175-0.688-3.888-2.188-6.197-6.643
			c-0.971,1.62-3.4,5.225-8.018,7.209l-3.727-5.104c1.296-0.482,3.401-1.294,5.427-3.199h-4.537v-4.492h7.169
			c0.122-0.647,0.163-1.014,0.244-1.7h-6.604v-4.414h2.553c-0.161-0.324-0.607-1.296-0.892-1.904l5.994-0.932
			c0.122,0.203,0.688,1.621,1.013,2.836h2.471c0.363-1.256,0.444-1.62,0.729-2.836l6.197,0.729
			c-0.244,0.771-0.526,1.377-0.852,2.105h2.755v4.414h-7.573c-0.082,0.852-0.122,1.176-0.244,1.701h8.262v4.496h-5.062
			c1.621,1.377,3.158,2.146,4.333,2.713h1.094c1.134,0,1.134-0.323,1.134-1.178V30.792h-10.974V16.09h17.09v33.331
			c0,2.188-1.093,4.092-3.564,4.092h-5.144l-1.012-4.132L168.069,52.217z M168.918,20.467v1.619h4.819v-1.619H168.918z
			 M168.918,25.245v1.621h4.819v-1.621H168.918z"/>
		<path d="M206.664,14.837h6.845v1.823h16.036v5.305h-38.472V16.66h15.591V14.837z M219.464,47.114h1.012
			c0.525,0,0.768-0.202,0.768-0.893v-7.57h-22.069V53.47h-6.724V33.827h35.437v15.474c0,2.835-1.904,4.171-4.09,4.171h-6.035
			l-0.608-3.236h-16.037V39.908h18.348V47.114L219.464,47.114z M223.957,22.978v9.683h-27.5v-9.683H223.957z M203.021,26.825v1.658
			h14.256v-1.658H203.021z M207.476,43.996v1.862h5.629v-1.862H207.476z"/>
		<path d="M246.437,44.847h-6.684v-5.67h25.353V37.84h-22.639V23.585h12.959v-1.337h-15.674v-5.63h15.674v-1.7h6.965v1.7h15.672
			v5.63h-15.672v1.337h12.839V37.84h-3.483v1.337h6.318v5.67h-6.318v5.146c0,2.429-2.227,3.604-4.01,3.604h-8.829l-1.255-5.953
			h6.479c0.769,0,0.972-0.119,0.972-0.973v-1.82h-13.037c2.228,2.271,3.441,4.092,3.927,4.817l-6.52,3.646
			c-1.701-2.552-3.604-5.145-5.75-7.086L246.437,44.847z M248.907,27.351v1.5h6.521v-1.5H248.907z M248.907,32.373v1.58h6.521v-1.58
			H248.907z M262.393,27.351v1.5h6.236v-1.5H262.393z M262.393,32.373v1.58h6.236v-1.58H262.393z"/>
	</g>
</g>
<g>
	<path d="M94.242,66.211v-6.067h0.838l1.905,3.069c0.441,0.711,0.785,1.351,1.067,1.972l0.018-0.009
		c-0.07-0.812-0.088-1.549-0.088-2.493v-2.539h0.723v6.067H97.93l-1.888-3.079c-0.415-0.675-0.812-1.367-1.11-2.025l-0.026,0.01
		c0.044,0.766,0.062,1.494,0.062,2.503v2.593L94.242,66.211L94.242,66.211z"/>
	<path d="M102.371,66.211l-0.062-0.55h-0.026c-0.236,0.343-0.696,0.648-1.305,0.648c-0.864,0-1.306-0.621-1.306-1.252
		c0-1.054,0.917-1.63,2.565-1.621v-0.09c0-0.359-0.097-1.008-0.97-1.008c-0.397,0-0.812,0.126-1.111,0.324l-0.177-0.521
		c0.353-0.234,0.864-0.389,1.402-0.389c1.306,0,1.623,0.91,1.623,1.783v1.629c0,0.379,0.018,0.748,0.069,1.045L102.371,66.211
		L102.371,66.211z M102.257,63.987c-0.848-0.02-1.809,0.135-1.809,0.98c0,0.514,0.335,0.756,0.731,0.756
		c0.556,0,0.909-0.359,1.031-0.729c0.026-0.081,0.045-0.171,0.045-0.252L102.257,63.987L102.257,63.987z"/>
	<path d="M105.148,60.603v1.252h1.111v0.604h-1.111v2.35c0,0.541,0.149,0.846,0.582,0.846c0.202,0,0.353-0.025,0.449-0.053
		l0.035,0.594c-0.149,0.062-0.389,0.107-0.688,0.107c-0.361,0-0.652-0.117-0.838-0.332c-0.221-0.234-0.3-0.621-0.3-1.136v-2.376
		h-0.661v-0.604h0.661V60.81L105.148,60.603z"/>
	<path d="M107.984,60.629c0.009,0.271-0.185,0.485-0.493,0.485c-0.272,0-0.468-0.215-0.468-0.485c0-0.278,0.203-0.495,0.485-0.495
		C107.799,60.134,107.984,60.351,107.984,60.629z M107.118,66.211v-4.356h0.776v4.356H107.118z"/>
	<path d="M113.034,63.996c0,1.61-1.094,2.313-2.126,2.313c-1.155,0-2.046-0.865-2.046-2.242c0-1.459,0.937-2.313,2.117-2.313
		C112.204,61.754,113.034,62.664,113.034,63.996z M109.648,64.041c0,0.954,0.538,1.675,1.297,1.675c0.74,0,1.296-0.712,1.296-1.691
		c0-0.738-0.36-1.676-1.278-1.676C110.043,62.349,109.648,63.213,109.648,64.041z"/>
	<path d="M114,63.033c0-0.45-0.009-0.819-0.034-1.181h0.688l0.044,0.721h0.019c0.212-0.414,0.704-0.819,1.41-0.819
		c0.592,0,1.509,0.36,1.509,1.854v2.603h-0.776v-2.512c0-0.702-0.256-1.288-0.987-1.288c-0.512,0-0.907,0.369-1.041,0.811
		c-0.035,0.101-0.053,0.234-0.053,0.369v2.62h-0.776L114,63.033L114,63.033z"/>
	<path d="M121.248,66.211l-0.062-0.55h-0.026c-0.236,0.343-0.695,0.648-1.305,0.648c-0.864,0-1.306-0.621-1.306-1.252
		c0-1.054,0.917-1.63,2.565-1.621v-0.09c0-0.359-0.097-1.008-0.97-1.008c-0.397,0-0.812,0.126-1.111,0.324l-0.177-0.521
		c0.353-0.234,0.864-0.389,1.402-0.389c1.306,0,1.623,0.91,1.623,1.783v1.629c0,0.379,0.018,0.748,0.069,1.045L121.248,66.211
		L121.248,66.211z M121.134,63.987c-0.848-0.02-1.809,0.135-1.809,0.98c0,0.514,0.335,0.756,0.731,0.756
		c0.556,0,0.909-0.359,1.032-0.729c0.025-0.081,0.044-0.171,0.044-0.252L121.134,63.987L121.134,63.987z"/>
	<path d="M123.123,59.817h0.776v6.394h-0.776V59.817z"/>
	<path d="M127.846,60.144v6.067h-0.769v-6.067H127.846z"/>
	<path d="M129.237,63.033c0-0.45-0.009-0.819-0.035-1.181h0.688l0.044,0.721h0.018c0.212-0.414,0.705-0.819,1.411-0.819
		c0.591,0,1.508,0.36,1.508,1.854v2.603h-0.775v-2.512c0-0.702-0.255-1.288-0.987-1.288c-0.512,0-0.908,0.369-1.041,0.811
		c-0.035,0.101-0.053,0.234-0.053,0.369v2.62h-0.776L129.237,63.033L129.237,63.033z"/>
	<path d="M134.014,65.399c0.229,0.153,0.635,0.315,1.022,0.315c0.564,0,0.828-0.288,0.828-0.647c0-0.379-0.22-0.586-0.793-0.803
		c-0.768-0.277-1.129-0.711-1.129-1.231c0-0.703,0.556-1.279,1.473-1.279c0.433,0,0.812,0.127,1.051,0.271l-0.194,0.576
		c-0.168-0.107-0.478-0.252-0.873-0.252c-0.459,0-0.715,0.271-0.715,0.594c0,0.36,0.256,0.522,0.812,0.738
		c0.741,0.288,1.12,0.666,1.12,1.314c0,0.766-0.582,1.306-1.597,1.306c-0.467,0-0.899-0.116-1.199-0.297L134.014,65.399z"/>
	<path d="M138.535,60.603v1.252h1.111v0.604h-1.111v2.35c0,0.541,0.149,0.846,0.582,0.846c0.202,0,0.354-0.025,0.449-0.053
		l0.035,0.594c-0.149,0.062-0.388,0.107-0.688,0.107c-0.36,0-0.651-0.117-0.838-0.332c-0.221-0.234-0.3-0.621-0.3-1.136v-2.376
		h-0.661v-0.604h0.661V60.81L138.535,60.603z"/>
	<path d="M141.371,60.629c0.01,0.271-0.185,0.485-0.493,0.485c-0.272,0-0.468-0.215-0.468-0.485c0-0.278,0.203-0.495,0.485-0.495
		C141.188,60.134,141.371,60.351,141.371,60.629z M140.508,66.211v-4.356h0.775v4.356H140.508z"/>
	<path d="M143.494,60.603v1.252h1.111v0.604h-1.111v2.35c0,0.541,0.149,0.846,0.582,0.846c0.202,0,0.354-0.025,0.449-0.053
		l0.035,0.594c-0.149,0.062-0.388,0.107-0.688,0.107c-0.36,0-0.651-0.117-0.838-0.332c-0.221-0.234-0.3-0.621-0.3-1.136v-2.376
		h-0.661v-0.604h0.661V60.81L143.494,60.603z"/>
	<path d="M149.038,65.022c0,0.449,0.01,0.846,0.035,1.188h-0.688l-0.045-0.712h-0.019c-0.202,0.353-0.652,0.812-1.411,0.812
		c-0.67,0-1.473-0.379-1.473-1.908v-2.549h0.776v2.412c0,0.829,0.246,1.387,0.951,1.387c0.521,0,0.883-0.368,1.023-0.719
		c0.044-0.117,0.07-0.263,0.07-0.406v-2.674h0.775v3.17H149.038z"/>
	<path d="M151.249,60.603v1.252h1.111v0.604h-1.111v2.35c0,0.541,0.149,0.846,0.582,0.846c0.202,0,0.354-0.025,0.449-0.053
		l0.035,0.594c-0.149,0.062-0.388,0.107-0.688,0.107c-0.36,0-0.651-0.117-0.838-0.332c-0.221-0.234-0.3-0.621-0.3-1.136v-2.376
		h-0.661v-0.604h0.661V60.81L151.249,60.603z"/>
	<path d="M153.602,64.176c0.018,1.071,0.688,1.513,1.464,1.513c0.556,0,0.891-0.099,1.182-0.225l0.134,0.566
		c-0.273,0.125-0.741,0.271-1.421,0.271c-1.313,0-2.1-0.883-2.1-2.196s0.759-2.351,2.002-2.351c1.395,0,1.765,1.252,1.765,2.054
		c0,0.161-0.019,0.287-0.026,0.368H153.602L153.602,64.176z M155.876,63.608c0.01-0.504-0.202-1.287-1.075-1.287
		c-0.785,0-1.129,0.738-1.19,1.287H155.876z"/>
	<path d="M163.298,63.996c0,1.61-1.095,2.313-2.127,2.313c-1.154,0-2.046-0.865-2.046-2.242c0-1.459,0.937-2.313,2.117-2.313
		C162.469,61.754,163.298,62.664,163.298,63.996z M159.91,64.041c0,0.954,0.538,1.675,1.297,1.675c0.74,0,1.296-0.712,1.296-1.691
		c0-0.738-0.36-1.676-1.277-1.676C160.308,62.349,159.91,63.213,159.91,64.041z"/>
	<path d="M164.345,66.211v-3.754h-0.602v-0.604h0.602v-0.207c0-0.611,0.132-1.17,0.492-1.521c0.291-0.288,0.681-0.405,1.041-0.405
		c0.273,0,0.513,0.063,0.661,0.127l-0.104,0.611c-0.114-0.055-0.273-0.1-0.494-0.1c-0.661,0-0.829,0.595-0.829,1.261v0.233h1.032
		v0.604h-1.032v3.754H164.345L164.345,66.211z"/>
	<path d="M171.339,60.81h-1.809v-0.666h4.401v0.666h-1.817v5.401h-0.775V60.81z"/>
	<path d="M174.363,64.176c0.019,1.071,0.688,1.513,1.464,1.513c0.557,0,0.892-0.099,1.183-0.225l0.133,0.566
		c-0.273,0.125-0.741,0.271-1.42,0.271c-1.314,0-2.101-0.883-2.101-2.196s0.76-2.351,2.002-2.351c1.395,0,1.766,1.252,1.766,2.054
		c0,0.161-0.02,0.287-0.027,0.368H174.363L174.363,64.176z M176.638,63.608c0.009-0.504-0.203-1.287-1.076-1.287
		c-0.785,0-1.129,0.738-1.19,1.287H176.638z"/>
	<path d="M181.379,66.049c-0.202,0.106-0.651,0.252-1.226,0.252c-1.288,0-2.126-0.892-2.126-2.224c0-1.342,0.899-2.312,2.293-2.312
		c0.459,0,0.864,0.116,1.076,0.225l-0.176,0.611c-0.187-0.107-0.478-0.207-0.9-0.207c-0.979,0-1.508,0.738-1.508,1.647
		c0,1.009,0.635,1.63,1.48,1.63c0.441,0,0.732-0.117,0.953-0.217L181.379,66.049z"/>
	<path d="M182.277,59.817h0.776v2.72h0.018c0.124-0.226,0.317-0.423,0.556-0.558c0.229-0.136,0.504-0.227,0.794-0.227
		c0.573,0,1.49,0.359,1.49,1.864v2.593h-0.775v-2.503c0-0.702-0.257-1.297-0.987-1.297c-0.503,0-0.899,0.36-1.041,0.793
		c-0.044,0.106-0.053,0.225-0.053,0.378v2.629h-0.776L182.277,59.817L182.277,59.817z"/>
	<path d="M187.16,63.033c0-0.45-0.009-0.819-0.035-1.181h0.688l0.044,0.721h0.018c0.213-0.414,0.705-0.819,1.411-0.819
		c0.591,0,1.508,0.36,1.508,1.854v2.603h-0.775v-2.512c0-0.702-0.255-1.288-0.987-1.288c-0.512,0-0.908,0.369-1.041,0.811
		c-0.035,0.101-0.053,0.234-0.053,0.369v2.62h-0.776L187.16,63.033L187.16,63.033z"/>
	<path d="M195.907,63.996c0,1.61-1.094,2.313-2.126,2.313c-1.155,0-2.046-0.865-2.046-2.242c0-1.459,0.936-2.313,2.117-2.313
		C195.077,61.754,195.907,62.664,195.907,63.996z M192.521,64.041c0,0.954,0.538,1.675,1.297,1.675c0.74,0,1.296-0.712,1.296-1.691
		c0-0.738-0.361-1.676-1.278-1.676C192.916,62.349,192.521,63.213,192.521,64.041z"/>
	<path d="M196.873,59.817h0.776v6.394h-0.776V59.817z"/>
	<path d="M202.807,63.996c0,1.61-1.095,2.313-2.126,2.313c-1.155,0-2.046-0.865-2.046-2.242c0-1.459,0.935-2.313,2.116-2.313
		C201.978,61.754,202.807,62.664,202.807,63.996z M199.419,64.041c0,0.954,0.538,1.675,1.298,1.675c0.739,0,1.296-0.712,1.296-1.691
		c0-0.738-0.361-1.676-1.278-1.676C199.817,62.349,199.419,63.213,199.419,64.041z"/>
	<path d="M207.45,61.854c-0.018,0.314-0.035,0.666-0.035,1.196v2.529c0,1-0.192,1.612-0.607,1.989
		c-0.414,0.396-1.016,0.521-1.552,0.521c-0.513,0-1.076-0.126-1.421-0.359l0.193-0.604c0.282,0.18,0.724,0.342,1.253,0.342
		c0.793,0,1.376-0.423,1.376-1.521v-0.484h-0.019c-0.237,0.404-0.696,0.729-1.357,0.729c-1.059,0-1.816-0.918-1.816-2.123
		c0-1.478,0.943-2.314,1.923-2.314c0.74,0,1.146,0.396,1.332,0.757h0.018l0.035-0.657H207.45L207.45,61.854z M206.648,63.573
		c0-0.137-0.009-0.252-0.044-0.36c-0.142-0.459-0.521-0.837-1.085-0.837c-0.74,0-1.271,0.639-1.271,1.646
		c0,0.854,0.424,1.566,1.262,1.566c0.477,0,0.908-0.307,1.075-0.811c0.045-0.135,0.062-0.288,0.062-0.424V63.573z"/>
	<path d="M208.974,61.854l0.936,2.573c0.098,0.288,0.202,0.632,0.273,0.892h0.018c0.079-0.26,0.167-0.594,0.273-0.908l0.847-2.557
		h0.819l-1.164,3.104c-0.557,1.495-0.936,2.26-1.464,2.729c-0.379,0.342-0.76,0.477-0.952,0.513l-0.194-0.666
		c0.194-0.063,0.45-0.188,0.68-0.388c0.212-0.172,0.477-0.478,0.652-0.883c0.035-0.08,0.062-0.144,0.062-0.188
		s-0.019-0.106-0.054-0.207l-1.579-4.015H208.974L208.974,61.854z"/>
	<path d="M211.988,67.317c0.194-0.53,0.433-1.494,0.529-2.151l0.864-0.09c-0.202,0.766-0.592,1.765-0.839,2.188L211.988,67.317z"/>
	<path d="M216.955,60.144v6.067h-0.768v-6.067H216.955z"/>
	<path d="M221.302,66.049c-0.203,0.106-0.652,0.252-1.227,0.252c-1.288,0-2.126-0.892-2.126-2.224c0-1.342,0.899-2.312,2.293-2.312
		c0.459,0,0.864,0.116,1.076,0.225l-0.176,0.611c-0.187-0.107-0.478-0.207-0.9-0.207c-0.979,0-1.508,0.738-1.508,1.647
		c0,1.009,0.635,1.63,1.481,1.63c0.44,0,0.731-0.117,0.952-0.217L221.302,66.049z"/>
	<path d="M222.198,59.817h0.776v2.72h0.018c0.124-0.226,0.317-0.423,0.557-0.558c0.229-0.136,0.503-0.227,0.794-0.227
		c0.572,0,1.489,0.359,1.489,1.864v2.593h-0.775v-2.503c0-0.702-0.256-1.297-0.987-1.297c-0.503,0-0.899,0.36-1.041,0.793
		c-0.044,0.106-0.053,0.225-0.053,0.378v2.629h-0.776L222.198,59.817L222.198,59.817z"/>
	<path d="M227.947,60.629c0.009,0.271-0.185,0.485-0.493,0.485c-0.272,0-0.468-0.215-0.468-0.485c0-0.278,0.203-0.495,0.485-0.495
		C227.762,60.134,227.947,60.351,227.947,60.629z M227.081,66.211v-4.356h0.776v4.356H227.081z"/>
	<path d="M229.134,63.033c0-0.45-0.01-0.819-0.035-1.181h0.688l0.044,0.721h0.019c0.212-0.414,0.705-0.819,1.411-0.819
		c0.591,0,1.508,0.36,1.508,1.854v2.603h-0.776v-2.512c0-0.702-0.256-1.288-0.986-1.288c-0.513,0-0.908,0.369-1.041,0.811
		c-0.035,0.101-0.054,0.234-0.054,0.369v2.62h-0.775L229.134,63.033L229.134,63.033z"/>
	<path d="M237.881,63.996c0,1.61-1.095,2.313-2.127,2.313c-1.154,0-2.046-0.865-2.046-2.242c0-1.459,0.936-2.313,2.117-2.313
		C237.052,61.754,237.881,62.664,237.881,63.996z M234.494,64.041c0,0.954,0.538,1.675,1.297,1.675c0.74,0,1.296-0.712,1.296-1.691
		c0-0.738-0.36-1.676-1.277-1.676C234.891,62.349,234.494,63.213,234.494,64.041z"/>
	<path d="M238.742,65.399c0.229,0.153,0.635,0.315,1.023,0.315c0.563,0,0.828-0.288,0.828-0.647c0-0.379-0.221-0.586-0.793-0.803
		c-0.769-0.277-1.129-0.711-1.129-1.231c0-0.703,0.556-1.279,1.473-1.279c0.432,0,0.812,0.127,1.05,0.271L241,62.601
		c-0.168-0.107-0.477-0.252-0.873-0.252c-0.459,0-0.715,0.271-0.715,0.594c0,0.36,0.256,0.522,0.812,0.738
		c0.741,0.288,1.12,0.666,1.12,1.314c0,0.766-0.582,1.306-1.598,1.306c-0.467,0-0.898-0.116-1.198-0.297L238.742,65.399z"/>
	<path d="M242.762,64.176c0.018,1.071,0.688,1.513,1.464,1.513c0.556,0,0.891-0.099,1.182-0.225l0.133,0.566
		c-0.272,0.125-0.74,0.271-1.42,0.271c-1.313,0-2.1-0.883-2.1-2.196s0.759-2.351,2.002-2.351c1.394,0,1.765,1.252,1.765,2.054
		c0,0.161-0.019,0.287-0.026,0.368H242.762L242.762,64.176z M245.036,63.608c0.009-0.504-0.203-1.287-1.076-1.287
		c-0.784,0-1.129,0.738-1.189,1.287H245.036z"/>
	<path d="M247.503,63.853h0.019c0.104-0.152,0.256-0.343,0.379-0.496l1.253-1.502h0.936l-1.649,1.791l1.879,2.565h-0.943
		l-1.474-2.089l-0.396,0.45v1.639h-0.769v-6.394h0.769v4.035H247.503z"/>
	<path d="M251.874,60.629c0.01,0.271-0.185,0.485-0.492,0.485c-0.273,0-0.469-0.215-0.469-0.485c0-0.278,0.203-0.495,0.485-0.495
		C251.691,60.134,251.874,60.351,251.874,60.629z M251.011,66.211v-4.356h0.775v4.356H251.011z"/>
	<path d="M259.102,66.013c-0.282,0.145-0.848,0.288-1.569,0.288c-1.676,0-2.938-1.079-2.938-3.069c0-1.899,1.262-3.188,3.104-3.188
		c0.741,0,1.208,0.162,1.411,0.27l-0.186,0.641c-0.291-0.145-0.705-0.252-1.199-0.252c-1.395,0-2.319,0.908-2.319,2.503
		c0,1.485,0.838,2.438,2.284,2.438c0.468,0,0.943-0.099,1.253-0.252L259.102,66.013z"/>
	<path d="M263.79,63.996c0,1.61-1.094,2.313-2.126,2.313c-1.154,0-2.046-0.865-2.046-2.242c0-1.459,0.936-2.313,2.117-2.313
		C262.961,61.754,263.79,62.664,263.79,63.996z M260.405,64.041c0,0.954,0.538,1.675,1.297,1.675c0.74,0,1.296-0.712,1.296-1.691
		c0-0.738-0.36-1.676-1.277-1.676C260.801,62.349,260.405,63.213,260.405,64.041z"/>
	<path d="M264.758,59.817h0.775v6.394h-0.775V59.817z"/>
	<path d="M266.827,59.817h0.776v6.394h-0.776V59.817z"/>
	<path d="M269.328,64.176c0.019,1.071,0.688,1.513,1.464,1.513c0.557,0,0.892-0.099,1.183-0.225l0.133,0.566
		c-0.273,0.125-0.741,0.271-1.42,0.271c-1.314,0-2.101-0.883-2.101-2.196s0.76-2.351,2.003-2.351c1.394,0,1.765,1.252,1.765,2.054
		c0,0.161-0.02,0.287-0.027,0.368H269.328L269.328,64.176z M271.605,63.608c0.009-0.504-0.203-1.287-1.076-1.287
		c-0.785,0-1.129,0.738-1.189,1.287H271.605z"/>
	<path d="M276.981,61.854c-0.019,0.314-0.035,0.666-0.035,1.196v2.529c0,1-0.194,1.612-0.608,1.989
		c-0.413,0.396-1.015,0.521-1.552,0.521c-0.512,0-1.076-0.126-1.421-0.359l0.194-0.604c0.282,0.18,0.724,0.342,1.253,0.342
		c0.793,0,1.375-0.423,1.375-1.521v-0.484h-0.019c-0.236,0.404-0.695,0.729-1.356,0.729c-1.06,0-1.817-0.918-1.817-2.123
		c0-1.478,0.944-2.314,1.923-2.314c0.741,0,1.146,0.396,1.332,0.757h0.019l0.035-0.657H276.981L276.981,61.854z M276.178,63.573
		c0-0.137-0.01-0.252-0.044-0.36c-0.142-0.459-0.521-0.837-1.085-0.837c-0.74,0-1.271,0.639-1.271,1.646
		c0,0.854,0.423,1.566,1.261,1.566c0.478,0,0.909-0.307,1.076-0.811c0.044-0.135,0.062-0.288,0.062-0.424V63.573z"/>
	<path d="M278.655,64.176c0.019,1.071,0.688,1.513,1.464,1.513c0.557,0,0.892-0.099,1.183-0.225l0.133,0.566
		c-0.273,0.125-0.741,0.271-1.42,0.271c-1.314,0-2.101-0.883-2.101-2.196s0.76-2.351,2.002-2.351c1.395,0,1.766,1.252,1.766,2.054
		c0,0.161-0.02,0.287-0.027,0.368H278.655L278.655,64.176z M280.93,63.608c0.009-0.504-0.203-1.287-1.076-1.287
		c-0.785,0-1.129,0.738-1.19,1.287H280.93z"/>
</g>
</svg>
