<?xml version="1.0" encoding="utf-8"?>
<!-- Generator: Adobe Illustrator 16.0.0, SVG Export Plug-In . SVG Version: 6.00 Build 0)  -->
<!DOCTYPE svg PUBLIC "-//W3C//DTD SVG 1.1//EN" "http://www.w3.org/Graphics/SVG/1.1/DTD/svg11.dtd">
<svg version="1.1" id="レイヤー_1" xmlns="http://www.w3.org/2000/svg" xmlns:xlink="http://www.w3.org/1999/xlink" x="0px"
	 y="0px" width="200px" height="200px" viewBox="0 0 200 200" enable-background="new 0 0 200 200" xml:space="preserve">
<g id="レイヤー_1_1_">
</g>
<g>
	<path d="M121.08,58.854c-0.364-0.241-0.805-0.384-1.275-0.384h-2.357V39.343h4.83c1.148,0,2.208-0.782,2.393-1.911
		c0.232-1.445-0.872-2.689-2.268-2.689H102.67v-2.702c0-1.559-1.121-2.98-2.67-3.135c-1.782-0.18-3.285,1.215-3.285,2.963v2.873
		H78.511c-1.146,0-2.206,0.786-2.391,1.916c-0.235,1.44,0.872,2.684,2.268,2.684h3.317v19.126h-3.223c-1.271,0-2.3,1.028-2.3,2.3
		c0,0.053,0.012,0.102,0.017,0.155c-0.053,0.217-0.088,0.447-0.088,0.68v18.962c0,1.527,1.101,2.922,2.625,3.078
		c1.751,0.172,3.227-1.199,3.227-2.914V63.066h35.221v17.5c0,1.527,1.104,2.922,2.626,3.078c1.751,0.172,3.228-1.199,3.228-2.914
		V61.604C123.037,60.332,122.219,59.259,121.08,58.854 M87.767,47.39h23.622v3.295H87.767V47.39z M111.387,42.794H87.765v-3.451
		h23.622V42.794z M87.767,55.281h23.622v3.188H87.767V55.281z"/>
	<path d="M110.652,66.598H88.814c-1.134,0-2.161,0.725-2.161,2.096v11.034c0,1.785,1.449,3.233,3.233,3.233
		c1.733,0,3.135-1.367,3.219-3.078h12.887c0.084,1.71,1.485,3.078,3.219,3.078c1.785,0,3.233-1.449,3.233-3.233
		c0,0,0.009-9.123,0.009-11.075C112.453,67.359,111.904,66.598,110.652,66.598 M93.12,71.259h12.857v3.958H93.12V71.259z"/>
	<path d="M122.369,120.865h-9.301v-3.434l3.975-0.018c0.982,0,1.773-0.789,1.773-1.771V99c0-0.978-0.818-1.698-1.797-1.698
		l-14.354-0.025v-3.708h17.749c1.197,0,2.169-0.97,2.169-2.169s-0.972-2.169-2.169-2.169h-17.749v-2.104
		c0-1.674-1.358-3.033-3.032-3.033s-3.031,1.359-3.031,3.033v2.104H79.035c-1.197,0-2.169,0.97-2.169,2.169s0.972,2.169,2.169,2.169
		h17.568v3.708l-14.347,0.025c-0.978,0-1.758,0.72-1.758,1.698v16.642c0,0.982,0.794,1.771,1.772,1.771l24.582,0.018v3.434h-14.62
		l-0.194-0.888c-0.342-1.552-1.873-2.53-3.424-2.187c-1.435,0.316-2.364,1.651-2.23,3.074H76.28c-1.242,0-2.247,1.006-2.247,2.246
		s1.004,2.248,2.247,2.248h11.057l1.146,5.205c0.342,1.553,1.875,2.529,3.426,2.191c1.547-0.34,2.527-1.875,2.188-3.422
		l-0.874-3.975h13.629v4.338c0,1.413-1.883,1.777-3.137,1.777c-1.255,0-4.024-0.315-4.024,2.246c0,2.562,2.092,2.664,4.547,2.664
		s8.83-0.575,8.83-5.852v-5.174h9.301c1.242,0,2.248-1.008,2.248-2.248S123.611,120.865,122.369,120.865 M96.603,113.093h-9.26
		v-3.606h9.26V113.093z M96.603,105.148h-9.26v-3.532h9.26V105.148z M111.972,113.093h-9.306v-3.606h9.306V113.093z
		 M111.972,105.148h-9.306v-3.532h9.306V105.148z"/>
	<path fill="#A64300" d="M121.252,102.672l0.041-6.25c0,0,2.369-1.801,2.527-4.584c0.197-2.979-1.136-4.159-1.136-4.159l0.019-3.643
		c0,0,3.742,2.08,3.742,7.957C126.445,97.048,123.211,100.699,121.252,102.672"/>
	<path fill="#A64300" d="M127.857,89.956c0,0-1.516-3.79-1.516-5.673c0-2.509,1.516-7.85,5.591-11.063
		c2.782,1.801,4.233,5.096,4.431,6.389c0.193,1.293,0.533,3.278-0.825,4.977C134.294,86.141,129.395,89.117,127.857,89.956"/>
	<path fill="#A64300" d="M127.975,90.819c0,0,7.996-4.666,9.407-6.467c1.253,2.427,1.659,7.314,0.248,9.548
		c-1.412,2.235-4.44,2.718-6.166,3.07c-1.726,0.352-4.22,0.746-4.729,0.746C127.518,95.964,128.014,92.31,127.975,90.819"/>
	<path fill="#A64300" d="M126.342,98.71c0,0,10.606-1.662,11.902-2.681c-0.629,3.295-1.803,7.135-3.997,8.701
		c-2.198,1.568-4.064,1.389-5.396,1.188c-1.335-0.192-6.222-1.539-6.69-1.771C124.16,102.223,126.026,99.57,126.342,98.71"/>
	<path fill="#A64300" d="M121.246,104.82c0,0,8.021,3.086,12.566,2.248c-2.113,3.409-3.785,5.137-4.964,5.332
		c-1.175,0.193-2.626-0.012-4.181-0.523c-1.438-0.471-3.397-1.383-3.397-1.383L121.246,104.82z"/>
	<path fill="#A64300" d="M121.299,111.562c0,0,4.443,1.947,6.401,2.223c-1.489,1.727-4.272,3.801-6.428,4.469
		C121.272,114.178,121.299,111.562,121.299,111.562"/>
	<path fill="#A64300" d="M138.988,82.118c0,0-2.352-6.352-2.55-6.741c-0.194-0.393-0.155-2.395,0.551-4.036
		c0.706-1.649,5.409-9.684,5.409-9.684s4.663,6.544,4.898,7.175c0.233,0.626,0.51,3.053-0.314,4.351
		C146.161,74.472,142.279,79.531,138.988,82.118"/>
	<path fill="#A64300" d="M149.073,73.048c0,0,2.378,5.463,2.574,6.208s0.286,3.434-1.79,5.239c-2.078,1.801-9.17,6.086-9.877,6.324
		c-0.116-2.783-0.482-6.782-0.795-7.567C141.495,81.569,147.348,76.658,149.073,73.048"/>
	<path fill="#A64300" d="M152.471,83.865c0,0,0.783,5.387,0.51,7.265c-0.275,1.883-1.255,3.451-3.371,4.625
		c-2.115,1.175-7.173,2.874-10.412,3.582c0.549-2.979,0.747-6.606,0.85-7.146C140.943,92.133,150.779,86.252,152.471,83.865"/>
	<path fill="#A64300" d="M139.039,100.433c0,0,10.453-2.562,13.471-4.756c-0.629,4.232-1.214,7.719-2.665,9.25
		c-1.45,1.525-2.404,2.025-4.952,2.141c-2.548,0.119-7.865-0.09-8.729-0.209C137.195,105.164,138.792,102.066,139.039,100.433"/>
	<path fill="#A64300" d="M135.538,107.801c0,0,9.8,0.654,13.836-0.168c-1.842,3.998-2.116,6.658-5.878,7.719
		c-3.765,1.057-5.959,0.275-7.407-0.119c-1.451-0.389-4.47-1.211-5.019-1.645C133.031,111.906,135.342,108.35,135.538,107.801"/>
	<path fill="#A64300" d="M130.404,114.332c0,0,7.643,3.1,13.758,2.707c-3.764,4.625-6.004,6.994-9.565,5.799
		c-3.368-1.129-7.772-3.916-8.699-4.898C127.308,116.764,129.581,115.273,130.404,114.332"/>
	<path fill="#A64300" d="M124.643,118.486c0,0,6.428,4.941,12.072,5.961c-3.411,3.33-6.467,5.447-8.857,5.172
		c-2.392-0.273-3.41-0.666-5.175-2.9c2.587-0.979,3.528-2.547,3.528-4.154C126.211,120.955,124.643,118.486,124.643,118.486"/>
	<path fill="#A64300" d="M116.061,127.701c0,0,4.782-0.078,5.525-0.553c2.038,1.488,2.547,2.471,5.84,3.528
		c-3.488,2.196-7.997,4.153-12.738,3.526C115.393,131.932,116.061,127.701,116.061,127.701"/>
	<path fill="#A64300" d="M77.455,85.957c0,0-4.742,5.939,1.099,10.446c0,1.763-0.022,7.682-0.022,7.682s-11.033-8.8-3.467-20.988
		C76.671,84.938,77.455,85.957,77.455,85.957"/>
	<path fill="#A64300" d="M78.513,108.062v9.701c0,0-6.152,0.098-9.524-4.92C72.281,112.688,78.427,108.521,78.513,108.062"/>
	<path fill="#A64300" d="M67.656,71.73c0,0,4.429,9.131,4.625,9.643c0.194,0.508,0.861,2.157,0.235,3.488
		c-0.626,1.33-1.463,3.92-1.463,3.92s-7.787-6.548-8.296-7.449C62.248,80.432,61.622,77.374,67.656,71.73"/>
	<path fill="#A64300" d="M61.777,81.766c1.608,2.116,6.01,5.89,9.068,7.85c-0.062,3.446,0.119,5.145,0.26,5.473
		c-5.368-1.134-10.672-3.619-11.024-6.205C59.725,86.276,60.76,83.018,61.777,81.766"/>
	<path fill="#A64300" d="M59.935,91.602c0,0,6.192,3.45,11.288,4.231c1.293,3.217,3.41,6.431,3.41,6.431
		c-5.331,0.662-10.347,0.508-12.541-1.883C59.894,97.99,59.503,93.091,59.935,91.602"/>
	<path fill="#A64300" d="M62.274,102.156c0,0,4.754,2.066,12.634,0.773c1.879,2.152,3.604,3.959,3.604,3.959s-5.421,4.887-9.34,4.57
		C65.07,110.338,62.954,105.398,62.274,102.156"/>
	<path fill="#A64300" d="M57.256,61.867c0,0,4.234,8.152,4.392,8.569c0.156,0.417,1.672,3.606,0.939,5.436
		c-0.73,1.83-2.875,5.435-2.875,5.435s-6.268-6.741-7.263-9.143c-1.009-2.443-0.366-4.708,0.995-6.794
		C54.801,63.278,57.256,61.867,57.256,61.867"/>
	<path fill="#A64300" d="M50.307,71.534c0,0,5.123,7.683,9.041,10.977c-0.745,2.55-1.176,6.504-1.176,6.504
		s-8.648-4.154-10.163-6.557C46.497,80.062,47.276,75.504,50.307,71.534"/>
	<path fill="#A64300" d="M46.021,83.031c0,0,9.641,6.454,12.228,7.396c-0.104,3.499,0.366,6.45,0.366,6.45s-8.779-1.408-11.13-3.5
		C45.078,91.241,45.029,87.942,46.021,83.031"/>
	<path fill="#A64300" d="M45.708,94.892c0,0,11.261,2.927,12.934,2.98c0.521,2.615,1.281,4.863,2.064,6.585
		c-5.175,0.363-9.589,0.625-12.804-1.043C44.65,101.719,45.708,94.892,45.708,94.892"/>
	<path fill="#A64300" d="M48.322,105.709c0,0,9.405,0.16,12.909-0.363c2.141,3.449,3.604,5.93,3.604,5.93s-6.585,2.51-9.457,2.485
		C52.588,113.73,49.679,112.348,48.322,105.709"/>
	<path fill="#A64300" d="M52.527,115.119c4.625-0.078,9.063-1.213,13.091-3.189c2.873,2.82,5.591,4.859,5.591,4.859
		s-5.591,4.756-9.144,4.965C58.511,121.963,53.937,117.551,52.527,115.119"/>
	<path fill="#A64300" d="M60.811,124.053c0,0,8.362-3.916,11.184-6.688c0.888,0.783,1.774,1.203,1.774,1.203
		s-1.828,1.307-1.878,3.865c-0.053,2.561,1.514,3.659,2.507,4.129c-1.934,1.831-3.135,3.605-7.003,2.717
		C63.529,128.394,60.811,124.053,60.811,124.053"/>
	<path fill="#A64300" d="M75.443,127.189c0,0,7.84,0.678,8.988,0.732c-1.516,2.77-2.873,5.066-4.127,5.537s-5.122,0.732-8.988-2.3
		C73.771,129.279,75.443,127.189,75.443,127.189"/>
	<path fill="#A64300" d="M85.215,128.965c0,0,1.621,4.338,3.814,5.387c2.196,1.043,4.809,0.889,8.048-1.154
		c0.313,2.092,0.051,2.877,0.051,2.877s-10.973,0.418-15.729-1.412C83.021,132.887,85.006,130.066,85.215,128.965"/>
</g>
<g>
	<path d="M15.154,159.678v-3.061h15.341v3.061H15.154z"/>
	<path d="M44.588,166.484l-0.685-1.585l-0.45,1.152c-1.332-0.433-2.305-0.937-3.205-2.089c-0.594,0.955-1.674,1.747-3.528,2.07
		l-1.152-2.178c1.08-0.145,1.926-0.342,2.431-0.811h-1.999v-1.908h2.791c0-0.108,0.018-0.414,0.018-0.541h-2.809v-1.908h1.278
		c-0.234-0.342-0.522-0.666-0.522-0.666l1.711-0.522h-2.971v9.058h-2.881v-15.684h7.184v6.626h-0.684
		c0.144,0.234,0.432,0.685,0.702,1.188h0.612c0.288-0.54,0.432-0.99,0.468-1.188h-0.559v-6.626h7.185V163.1c0,0.197,0,0.377,0,0.558
		C47.522,165.8,47.414,166.34,44.588,166.484z M37.151,152.854h-1.656v0.541h1.656V152.854z M37.151,155.068h-1.656v0.541h1.656
		V155.068z M44.642,163.279v-5.78h-3.367l2.197,0.324c0,0-0.145,0.433-0.469,0.864h1.08v1.908h-2.61
		c0,0.127-0.018,0.414-0.018,0.541h2.628v1.908h-1.944c0.469,0.27,1.278,0.504,1.711,0.576c0.756,0,0.792-0.126,0.792-0.288
		C44.642,163.314,44.642,163.297,44.642,163.279z M44.642,152.854h-1.639v0.541h1.639V152.854z M44.642,155.068h-1.639v0.541h1.639
		V155.068z"/>
	<path d="M49.103,165.836v-2.881h6.248v-8.822h-5.438v-2.881h14.025v2.881h-5.474v8.822h6.302v2.881H49.103z"/>
	<path d="M80.57,166.412c-1.458-0.414-3.511-1.135-5.06-2.936v3.08H72.63v-3.08c-1.549,1.801-3.691,2.521-5.149,2.936l-1.477-2.377
		c1.566-0.252,3.061-0.612,4.304-1.098h-3.89v-2.252h6.212v-0.539h-5.455v-1.963h5.455v-0.54h-6.031v-2.106h2.971l-0.343-0.757
		h-2.881v-2.341h1.278c0,0-0.288-0.756-0.63-1.566l2.557-0.449c0.288,0.773,0.738,2.016,0.738,2.016h0.288v-2.088h2.881v2.088h1.278
		v-2.088h2.881v2.088l0.271,0.019c0.216-0.576,0.468-1.261,0.756-2.034l2.575,0.414c-0.252,0.611-0.469,1.152-0.666,1.602h1.134
		v2.341h-2.701l-0.342,0.757h2.719v2.106h-5.852v0.54h5.275v1.963h-5.275v0.539h6.068v2.252h-3.746
		c1.243,0.485,2.647,0.846,4.214,1.098L80.57,166.412z M72.414,154.78l0.342,0.757h2.683l0.343-0.757H72.414z"/>
	<path d="M83.446,153.809v-2.467h5.96v-1.009h3.241v1.009h6.14v2.467H83.446z M94.538,166.538l-0.522-1.188h-6.968v-3.655h8.12
		v1.819c0.522,0,0.54-0.072,0.54-0.486v-1.891h-9.2v5.42h-2.881v-7.581h14.962v4.7C98.589,166.447,98.301,166.538,94.538,166.538z
		 M85.247,158.436v-4.088h11.794v4.088H85.247z M94.16,156.041h-6.032v0.648h6.032V156.041z M92.396,163.189H89.82v0.647h2.575
		V163.189z"/>
	<path d="M113.564,159.93v0.631h2.214v2.43h-2.214c0,3.386-0.198,3.566-5.042,3.566l-1.134-3.025h2.341
		c0.882,0,0.954-0.055,0.954-0.342c0-0.055,0-0.127,0-0.199h-5.42c0.864,0.613,1.711,1.423,1.711,1.423l-2.233,1.999
		c0,0-1.242-1.404-2.448-2.593l0.99-0.829h-2.611v-2.43h10.012v-0.631h-10.3v-2.232h6.393v-0.612h-5.618v-2.232h0.486l-1.53-2.089
		c1.08-0.54,2.215-1.53,2.557-2.34l2.953,0.18c0,0-0.145,0.287-0.414,0.63h3.349v0.702c0.468-0.432,0.99-1.008,1.278-1.512
		l2.881,0.197c-0.144,0.324-0.324,0.612-0.324,0.612h3.602v2.232h-1.566c0.288,0.415,0.504,0.919,0.504,0.919l-2.377,0.468h2.791
		v2.232h-5.689v0.612h6.428v2.232H113.564z M106.776,154.348l-2.215,0.469c0,0-0.234-0.756-0.486-1.351h-0.36
		c-0.378,0.505-0.954,1.044-1.494,1.387h4.556V154.348z M108.162,153.466h-1.296c0.27,0.324,0.45,0.648,0.45,0.648h1.477
		L108.162,153.466z M111.691,153.466h-0.684c-0.522,0.595-1.099,1.081-1.351,1.261v0.126h2.431
		C112.088,154.853,111.998,154.223,111.691,153.466z"/>
	<path d="M130.502,163.117v0.648c0,1.639-0.324,2.791-2.539,2.791h-2.269l-1.044-2.558h2.358c0.468,0,0.612-0.162,0.612-0.702v-0.18
		h-5.96c1.44,1.116,1.998,1.639,1.998,1.639l-2.269,1.602c0,0-1.08-1.025-2.538-2.25l1.44-0.99h-2.881v-2.341h10.209v-0.54h-9.291
		v-6.176h5.563v-0.504h-6.248v-2.323h6.248v-0.882h2.881v0.882h6.212v2.323h-6.212v0.504h5.51v6.176h-1.782v0.54h2.719v2.341
		H130.502z M123.894,155.843h-2.683v0.54h2.683V155.843z M123.894,157.896h-2.683v0.54h2.683V157.896z M129.403,155.843h-2.629v0.54
		h2.629V155.843z M129.403,157.896h-2.629v0.54h2.629V157.896z"/>
	<path d="M137.861,158.939v7.635h-2.881v-15.701h7.185v8.066H137.861z M139.518,153.124h-1.656v0.757h1.656V153.124z
		 M139.518,155.915h-1.656v0.774h1.656V155.915z M145.981,166.502l-1.188-2.881c2.088,0,2.214-0.055,2.214-0.252
		c0-0.036,0-0.055,0-0.09v-4.34h-4.303v-8.066h7.184V163.1c0,0.215,0,0.414,0,0.611
		C149.889,166.105,149.745,166.502,145.981,166.502z M147.008,153.124h-1.638v0.757h1.638V153.124z M147.008,155.915h-1.638v0.774
		h1.638V155.915z"/>
	<path d="M161.659,162.847v0.126c0,3.403-0.45,3.584-5.996,3.584l-1.08-2.828h3.331c0.756,0,0.774-0.125,0.774-0.684
		c0-0.018,0-0.055,0-0.072v-0.126h-7.022v-2.737h7.022v-0.936h1.206c0,0,0.594-0.18,1.008-0.486h-7.22v-1.278h-1.801v-4.394h1.566
		c0,0-0.324-0.684-0.81-1.458l2.395-1.152c0.63,0.864,1.513,2.61,1.513,2.61h1.35c0,0-0.396-0.846-0.936-1.782l2.538-0.847
		c0.702,1.045,1.44,2.629,1.44,2.629h1.225c0,0,0.847-1.494,1.242-2.646l2.791,0.954c-0.252,0.648-0.792,1.692-0.792,1.692h1.818
		v4.375h-1.927v1.225c-0.612,0.559-1.513,1.08-2.395,1.494h4.465v2.737H161.659z M164.342,155.537h-9.579v0.81h9.579V155.537z"/>
	<path d="M183.603,166.557c-1.458-0.451-2.916-1.135-3.906-1.981c-1.026,0.937-2.665,1.566-4.538,1.981l-1.188-3.008
		c1.513-0.216,2.791-0.576,3.602-1.008c-0.63-0.9-1.188-2.053-1.585-3.098c-0.216,0.199-0.468,0.379-0.737,0.559l-0.415-1.206
		l-0.702,2.736c0,0-0.396-1.206-0.647-2.646v7.671h-2.881v-6.861c-0.162,1.441-0.505,2.737-0.864,3.422l-1.225-3.169
		c1.188-1.854,1.765-3.511,1.998-4.501h-1.584v-2.701h1.675v-2.395h2.881v2.395h1.08v-0.864h3.367v-1.53h2.881v1.53h3.655v2.79
		h-1.801c0.378,0.738,0.99,1.766,2.106,2.666l-1.513,2.61c-0.144-0.108-0.288-0.216-0.432-0.343
		c-0.217,0.883-0.666,2.035-1.207,2.918c0.99,0.449,2.053,0.81,3.169,1.025L183.603,166.557z M174.925,154.672v0.775h-1.387
		c0.45,0.953,0.756,1.476,0.756,1.476c0.828-0.63,1.44-1.566,1.801-2.251H174.925z M179.768,155.177l0.99-0.505h-2.79l1.044,0.469
		c0,0-0.559,1.639-1.801,3.061l1.026-0.486c0.288,0.919,0.756,2.053,1.225,2.863c0.396-0.774,0.756-1.891,0.918-2.898l1.009,0.378
		C180.272,156.581,179.768,155.177,179.768,155.177z"/>
	<path d="M15.473,174.806v-5.39h0.753l1.71,2.727c0.396,0.633,0.705,1.199,0.959,1.752l0.016-0.008
		c-0.063-0.721-0.079-1.376-0.079-2.215v-2.256h0.649v5.39h-0.697l-1.694-2.734c-0.373-0.6-0.729-1.216-0.998-1.8l-0.023,0.009
		c0.039,0.68,0.055,1.327,0.055,2.223v2.303H15.473z"/>
	<path d="M22.792,174.806l-0.055-0.487h-0.024c-0.214,0.303-0.625,0.575-1.172,0.575c-0.776,0-1.172-0.552-1.172-1.111
		c0-0.936,0.823-1.447,2.305-1.439v-0.079c0-0.32-0.088-0.896-0.871-0.896c-0.356,0-0.729,0.112-0.998,0.288l-0.158-0.464
		c0.316-0.207,0.775-0.344,1.259-0.344c1.172,0,1.457,0.808,1.457,1.584v1.446c0,0.336,0.016,0.664,0.063,0.928H22.792z
		 M22.689,172.83c-0.761-0.016-1.624,0.121-1.624,0.872c0,0.456,0.302,0.672,0.658,0.672c0.498,0,0.815-0.319,0.926-0.647
		c0.024-0.072,0.04-0.152,0.04-0.225V172.83z"/>
	<path d="M25.306,169.824v1.111h0.997v0.536h-0.997v2.087c0,0.479,0.134,0.752,0.522,0.752c0.182,0,0.316-0.024,0.403-0.049
		l0.032,0.527c-0.135,0.057-0.349,0.097-0.618,0.097c-0.324,0-0.586-0.104-0.752-0.296c-0.198-0.208-0.27-0.552-0.27-1.008v-2.11
		H24.03v-0.536h0.594v-0.928L25.306,169.824z"/>
	<path d="M27.873,169.849c0.008,0.239-0.167,0.432-0.443,0.432c-0.246,0-0.42-0.192-0.42-0.432c0-0.248,0.182-0.44,0.436-0.44
		C27.706,169.408,27.873,169.601,27.873,169.849z M27.097,174.806v-3.87h0.697v3.87H27.097z"/>
	<path d="M32.429,172.839c0,1.431-0.982,2.055-1.908,2.055c-1.038,0-1.838-0.768-1.838-1.991c0-1.295,0.84-2.055,1.9-2.055
		C31.685,170.848,32.429,171.655,32.429,172.839z M29.388,172.879c0,0.848,0.483,1.486,1.164,1.486c0.665,0,1.164-0.631,1.164-1.502
		c0-0.656-0.324-1.488-1.148-1.488C29.744,171.375,29.388,172.143,29.388,172.879z"/>
	<path d="M33.317,171.983c0-0.399-0.008-0.728-0.031-1.048h0.617l0.04,0.64h0.016c0.189-0.368,0.634-0.728,1.267-0.728
		c0.531,0,1.354,0.32,1.354,1.647v2.311h-0.697v-2.231c0-0.623-0.229-1.143-0.887-1.143c-0.459,0-0.815,0.328-0.935,0.72
		c-0.031,0.088-0.047,0.208-0.047,0.327v2.327h-0.697V171.983z"/>
	<path d="M39.845,174.806l-0.055-0.487h-0.024c-0.214,0.303-0.625,0.575-1.172,0.575c-0.776,0-1.172-0.552-1.172-1.111
		c0-0.936,0.823-1.447,2.305-1.439v-0.079c0-0.32-0.088-0.896-0.871-0.896c-0.356,0-0.729,0.112-0.998,0.288l-0.158-0.464
		c0.316-0.207,0.775-0.344,1.259-0.344c1.172,0,1.457,0.808,1.457,1.584v1.446c0,0.336,0.016,0.664,0.063,0.928H39.845z
		 M39.742,172.83c-0.761-0.016-1.624,0.121-1.624,0.872c0,0.456,0.302,0.672,0.658,0.672c0.498,0,0.815-0.319,0.926-0.647
		c0.024-0.072,0.04-0.152,0.04-0.225V172.83z"/>
	<path d="M41.55,169.129h0.697v5.677H41.55V169.129z"/>
	<path d="M45.831,169.416v5.39h-0.689v-5.39H45.831z"/>
	<path d="M47.1,171.983c0-0.399-0.008-0.728-0.031-1.048h0.617l0.04,0.64h0.016c0.189-0.368,0.634-0.728,1.267-0.728
		c0.531,0,1.354,0.32,1.354,1.647v2.311h-0.697v-2.231c0-0.623-0.229-1.143-0.887-1.143c-0.459,0-0.815,0.328-0.935,0.72
		c-0.031,0.088-0.047,0.208-0.047,0.327v2.327H47.1V171.983z"/>
	<path d="M51.41,174.086c0.206,0.137,0.57,0.279,0.918,0.279c0.507,0,0.745-0.256,0.745-0.575c0-0.335-0.198-0.52-0.713-0.712
		c-0.689-0.248-1.014-0.631-1.014-1.095c0-0.624,0.499-1.136,1.322-1.136c0.388,0,0.729,0.112,0.942,0.24l-0.174,0.512
		c-0.15-0.096-0.428-0.225-0.784-0.225c-0.412,0-0.642,0.24-0.642,0.528c0,0.319,0.229,0.464,0.729,0.655
		c0.665,0.256,1.006,0.592,1.006,1.168c0,0.68-0.522,1.159-1.434,1.159c-0.42,0-0.808-0.104-1.077-0.265L51.41,174.086z"/>
	<path d="M55.491,169.824v1.111h0.997v0.536h-0.997v2.087c0,0.479,0.134,0.752,0.522,0.752c0.182,0,0.316-0.024,0.403-0.049
		l0.032,0.527c-0.135,0.057-0.349,0.097-0.618,0.097c-0.324,0-0.586-0.104-0.752-0.296c-0.198-0.208-0.27-0.552-0.27-1.008v-2.11
		h-0.594v-0.536h0.594v-0.928L55.491,169.824z"/>
	<path d="M58.059,169.849c0.008,0.239-0.167,0.432-0.443,0.432c-0.246,0-0.42-0.192-0.42-0.432c0-0.248,0.182-0.44,0.436-0.44
		C57.892,169.408,58.059,169.601,58.059,169.849z M57.282,174.806v-3.87h0.697v3.87H57.282z"/>
	<path d="M59.985,169.824v1.111h0.997v0.536h-0.997v2.087c0,0.479,0.134,0.752,0.522,0.752c0.182,0,0.316-0.024,0.403-0.049
		l0.032,0.527c-0.135,0.057-0.349,0.097-0.618,0.097c-0.324,0-0.586-0.104-0.752-0.296c-0.198-0.208-0.27-0.552-0.27-1.008v-2.11
		H58.71v-0.536h0.594v-0.928L59.985,169.824z"/>
	<path d="M64.983,173.75c0,0.4,0.008,0.752,0.032,1.056h-0.618l-0.039-0.632h-0.017c-0.182,0.312-0.586,0.72-1.267,0.72
		c-0.602,0-1.322-0.336-1.322-1.694v-2.264h0.696v2.143c0,0.736,0.222,1.232,0.855,1.232c0.468,0,0.792-0.328,0.919-0.641
		c0.039-0.104,0.063-0.231,0.063-0.359v-2.375h0.696V173.75z"/>
	<path d="M66.99,169.824v1.111h0.997v0.536H66.99v2.087c0,0.479,0.134,0.752,0.522,0.752c0.182,0,0.316-0.024,0.403-0.049
		l0.032,0.527c-0.135,0.057-0.349,0.097-0.618,0.097c-0.324,0-0.586-0.104-0.752-0.296c-0.198-0.208-0.27-0.552-0.27-1.008v-2.11
		h-0.594v-0.536h0.594v-0.928L66.99,169.824z"/>
	<path d="M69.121,172.998c0.017,0.952,0.618,1.344,1.315,1.344c0.498,0,0.8-0.088,1.061-0.199l0.119,0.503
		c-0.246,0.112-0.665,0.24-1.275,0.24c-1.18,0-1.885-0.784-1.885-1.951s0.682-2.087,1.798-2.087c1.251,0,1.584,1.111,1.584,1.823
		c0,0.144-0.016,0.256-0.023,0.327H69.121z M71.165,172.495c0.008-0.448-0.183-1.144-0.967-1.144c-0.705,0-1.014,0.656-1.069,1.144
		H71.165z"/>
	<path d="M77.868,172.839c0,1.431-0.982,2.055-1.908,2.055c-1.038,0-1.838-0.768-1.838-1.991c0-1.295,0.84-2.055,1.9-2.055
		C77.124,170.848,77.868,171.655,77.868,172.839z M74.827,172.879c0,0.848,0.483,1.486,1.164,1.486c0.665,0,1.164-0.631,1.164-1.502
		c0-0.656-0.324-1.488-1.148-1.488C75.184,171.375,74.827,172.143,74.827,172.879z"/>
	<path d="M78.828,174.806v-3.334H78.29v-0.536h0.538v-0.184c0-0.544,0.119-1.039,0.443-1.352c0.262-0.256,0.61-0.359,0.935-0.359
		c0.245,0,0.459,0.056,0.594,0.111l-0.095,0.544c-0.104-0.048-0.245-0.088-0.443-0.088c-0.594,0-0.745,0.528-0.745,1.12v0.207h0.927
		v0.536h-0.927v3.334H78.828z"/>
	<path d="M85.169,170.008h-1.623v-0.592h3.951v0.592h-1.631v4.798h-0.697V170.008z"/>
	<path d="M87.903,172.998c0.017,0.952,0.618,1.344,1.314,1.344c0.499,0,0.801-0.088,1.062-0.199l0.119,0.503
		c-0.246,0.112-0.665,0.24-1.275,0.24c-1.18,0-1.885-0.784-1.885-1.951s0.682-2.087,1.798-2.087c1.251,0,1.584,1.111,1.584,1.823
		c0,0.144-0.016,0.256-0.023,0.327H87.903z M89.947,172.495c0.008-0.448-0.183-1.144-0.967-1.144c-0.705,0-1.014,0.656-1.069,1.144
		H89.947z"/>
	<path d="M94.226,174.662c-0.183,0.096-0.586,0.224-1.101,0.224c-1.156,0-1.909-0.792-1.909-1.976c0-1.191,0.808-2.055,2.06-2.055
		c0.411,0,0.775,0.104,0.966,0.2l-0.158,0.544c-0.167-0.096-0.428-0.184-0.808-0.184c-0.88,0-1.354,0.655-1.354,1.463
		c0,0.896,0.57,1.447,1.33,1.447c0.396,0,0.657-0.104,0.855-0.192L94.226,174.662z"/>
	<path d="M95.051,169.129h0.697v2.414h0.016c0.11-0.199,0.285-0.375,0.499-0.495c0.206-0.12,0.451-0.2,0.713-0.2
		c0.515,0,1.338,0.32,1.338,1.655v2.303h-0.697v-2.223c0-0.624-0.229-1.151-0.887-1.151c-0.451,0-0.808,0.32-0.935,0.703
		c-0.039,0.096-0.047,0.2-0.047,0.336v2.335h-0.697V169.129z"/>
	<path d="M99.457,171.983c0-0.399-0.008-0.728-0.031-1.048h0.617l0.04,0.64h0.016c0.189-0.368,0.634-0.728,1.267-0.728
		c0.531,0,1.354,0.32,1.354,1.647v2.311h-0.697v-2.231c0-0.623-0.229-1.143-0.887-1.143c-0.459,0-0.815,0.328-0.935,0.72
		c-0.031,0.088-0.047,0.208-0.047,0.327v2.327h-0.697V171.983z"/>
	<path d="M107.331,172.839c0,1.431-0.982,2.055-1.908,2.055c-1.038,0-1.838-0.768-1.838-1.991c0-1.295,0.84-2.055,1.9-2.055
		C106.587,170.848,107.331,171.655,107.331,172.839z M104.29,172.879c0,0.848,0.483,1.486,1.164,1.486
		c0.665,0,1.164-0.631,1.164-1.502c0-0.656-0.324-1.488-1.148-1.488C104.646,171.375,104.29,172.143,104.29,172.879z"/>
	<path d="M108.22,169.129h0.697v5.677h-0.697V169.129z"/>
	<path d="M113.567,172.839c0,1.431-0.982,2.055-1.908,2.055c-1.038,0-1.838-0.768-1.838-1.991c0-1.295,0.84-2.055,1.9-2.055
		C112.823,170.848,113.567,171.655,113.567,172.839z M110.526,172.879c0,0.848,0.483,1.486,1.164,1.486
		c0.665,0,1.164-0.631,1.164-1.502c0-0.656-0.324-1.488-1.148-1.488C110.883,171.375,110.526,172.143,110.526,172.879z"/>
	<path d="M117.759,170.936c-0.017,0.28-0.032,0.592-0.032,1.063v2.247c0,0.887-0.174,1.432-0.546,1.768
		c-0.373,0.352-0.911,0.463-1.395,0.463c-0.459,0-0.966-0.111-1.274-0.32l0.174-0.535c0.254,0.16,0.649,0.304,1.125,0.304
		c0.713,0,1.235-0.376,1.235-1.351v-0.432h-0.016c-0.214,0.359-0.626,0.646-1.22,0.646c-0.95,0-1.632-0.814-1.632-1.887
		c0-1.311,0.848-2.055,1.727-2.055c0.665,0,1.029,0.352,1.196,0.672h0.016l0.031-0.584H117.759z M117.038,172.463
		c0-0.12-0.008-0.224-0.04-0.32c-0.127-0.407-0.467-0.743-0.974-0.743c-0.666,0-1.141,0.567-1.141,1.464
		c0,0.759,0.38,1.391,1.133,1.391c0.427,0,0.815-0.271,0.966-0.72c0.039-0.12,0.056-0.256,0.056-0.376V172.463z"/>
	<path d="M119.146,170.936l0.84,2.287c0.087,0.256,0.183,0.56,0.245,0.791h0.017c0.071-0.231,0.15-0.527,0.245-0.807l0.761-2.271
		h0.736l-1.046,2.759c-0.499,1.327-0.839,2.007-1.314,2.423c-0.341,0.304-0.681,0.424-0.855,0.455l-0.174-0.592
		c0.174-0.056,0.404-0.168,0.609-0.344c0.19-0.151,0.428-0.424,0.586-0.783c0.032-0.072,0.056-0.128,0.056-0.168
		s-0.016-0.096-0.047-0.184l-1.418-3.566H119.146z"/>
	<path d="M121.873,175.789c0.174-0.472,0.388-1.327,0.475-1.911l0.776-0.079c-0.182,0.68-0.53,1.566-0.752,1.942L121.873,175.789z"
		/>
	<path d="M126.375,169.416v5.39h-0.689v-5.39H126.375z"/>
	<path d="M130.297,174.662c-0.183,0.096-0.586,0.224-1.101,0.224c-1.156,0-1.909-0.792-1.909-1.976c0-1.191,0.808-2.055,2.06-2.055
		c0.411,0,0.775,0.104,0.966,0.2l-0.158,0.544c-0.167-0.096-0.428-0.184-0.808-0.184c-0.88,0-1.354,0.655-1.354,1.463
		c0,0.896,0.57,1.447,1.33,1.447c0.396,0,0.657-0.104,0.855-0.192L130.297,174.662z"/>
	<path d="M131.122,169.129h0.697v2.414h0.016c0.11-0.199,0.285-0.375,0.499-0.495c0.206-0.12,0.451-0.2,0.713-0.2
		c0.515,0,1.338,0.32,1.338,1.655v2.303h-0.697v-2.223c0-0.624-0.229-1.151-0.887-1.151c-0.451,0-0.808,0.32-0.935,0.703
		c-0.039,0.096-0.047,0.2-0.047,0.336v2.335h-0.697V169.129z"/>
	<path d="M136.304,169.849c0.008,0.239-0.167,0.432-0.443,0.432c-0.246,0-0.42-0.192-0.42-0.432c0-0.248,0.182-0.44,0.436-0.44
		C136.137,169.408,136.304,169.601,136.304,169.849z M135.527,174.806v-3.87h0.697v3.87H135.527z"/>
	<path d="M137.391,171.983c0-0.399-0.008-0.728-0.031-1.048h0.617l0.04,0.64h0.016c0.189-0.368,0.634-0.728,1.267-0.728
		c0.531,0,1.354,0.32,1.354,1.647v2.311h-0.697v-2.231c0-0.623-0.229-1.143-0.887-1.143c-0.459,0-0.815,0.328-0.935,0.72
		c-0.031,0.088-0.047,0.208-0.047,0.327v2.327h-0.697V171.983z"/>
	<path d="M145.265,172.839c0,1.431-0.982,2.055-1.908,2.055c-1.038,0-1.838-0.768-1.838-1.991c0-1.295,0.84-2.055,1.9-2.055
		C144.521,170.848,145.265,171.655,145.265,172.839z M142.224,172.879c0,0.848,0.483,1.486,1.164,1.486
		c0.665,0,1.164-0.631,1.164-1.502c0-0.656-0.324-1.488-1.148-1.488C142.58,171.375,142.224,172.143,142.224,172.879z"/>
	<path d="M146.059,174.086c0.206,0.137,0.57,0.279,0.918,0.279c0.507,0,0.745-0.256,0.745-0.575c0-0.335-0.198-0.52-0.713-0.712
		c-0.689-0.248-1.014-0.631-1.014-1.095c0-0.624,0.499-1.136,1.322-1.136c0.388,0,0.729,0.112,0.942,0.24l-0.174,0.512
		c-0.15-0.096-0.428-0.225-0.784-0.225c-0.412,0-0.642,0.24-0.642,0.528c0,0.319,0.229,0.464,0.729,0.655
		c0.665,0.256,1.006,0.592,1.006,1.168c0,0.68-0.522,1.159-1.434,1.159c-0.42,0-0.808-0.104-1.077-0.265L146.059,174.086z"/>
	<path d="M149.688,172.998c0.017,0.952,0.618,1.344,1.315,1.344c0.498,0,0.8-0.088,1.061-0.199l0.119,0.503
		c-0.246,0.112-0.665,0.24-1.275,0.24c-1.18,0-1.885-0.784-1.885-1.951s0.682-2.087,1.798-2.087c1.251,0,1.584,1.111,1.584,1.823
		c0,0.144-0.016,0.256-0.023,0.327H149.688z M151.731,172.495c0.008-0.448-0.183-1.144-0.967-1.144
		c-0.705,0-1.014,0.656-1.069,1.144H151.731z"/>
	<path d="M153.966,172.711h0.017c0.095-0.137,0.229-0.304,0.34-0.439l1.125-1.336h0.84l-1.481,1.592l1.687,2.278h-0.847
		l-1.323-1.854l-0.356,0.399v1.455h-0.688v-5.677h0.688V172.711z"/>
	<path d="M157.913,169.849c0.008,0.239-0.167,0.432-0.443,0.432c-0.246,0-0.42-0.192-0.42-0.432c0-0.248,0.182-0.44,0.436-0.44
		C157.746,169.408,157.913,169.601,157.913,169.849z M157.137,174.806v-3.87h0.697v3.87H157.137z"/>
	<path d="M164.442,174.63c-0.254,0.128-0.761,0.256-1.41,0.256c-1.504,0-2.637-0.96-2.637-2.727c0-1.687,1.133-2.831,2.787-2.831
		c0.666,0,1.085,0.145,1.268,0.24l-0.166,0.568c-0.262-0.129-0.634-0.225-1.077-0.225c-1.252,0-2.083,0.808-2.083,2.223
		c0,1.32,0.752,2.167,2.051,2.167c0.42,0,0.848-0.088,1.125-0.224L164.442,174.63z"/>
	<path d="M168.674,172.839c0,1.431-0.982,2.055-1.908,2.055c-1.038,0-1.838-0.768-1.838-1.991c0-1.295,0.84-2.055,1.9-2.055
		C167.93,170.848,168.674,171.655,168.674,172.839z M165.633,172.879c0,0.848,0.483,1.486,1.164,1.486
		c0.665,0,1.164-0.631,1.164-1.502c0-0.656-0.324-1.488-1.148-1.488C165.989,171.375,165.633,172.143,165.633,172.879z"/>
	<path d="M169.562,169.129h0.697v5.677h-0.697V169.129z"/>
	<path d="M171.441,169.129h0.697v5.677h-0.697V169.129z"/>
	<path d="M173.708,172.998c0.017,0.952,0.618,1.344,1.314,1.344c0.499,0,0.801-0.088,1.062-0.199l0.119,0.503
		c-0.246,0.112-0.665,0.24-1.275,0.24c-1.18,0-1.885-0.784-1.885-1.951s0.682-2.087,1.798-2.087c1.251,0,1.584,1.111,1.584,1.823
		c0,0.144-0.016,0.256-0.023,0.327H173.708z M175.752,172.495c0.008-0.448-0.183-1.144-0.967-1.144
		c-0.705,0-1.014,0.656-1.069,1.144H175.752z"/>
	<path d="M180.601,170.936c-0.017,0.28-0.032,0.592-0.032,1.063v2.247c0,0.887-0.174,1.432-0.546,1.768
		c-0.373,0.352-0.911,0.463-1.395,0.463c-0.459,0-0.966-0.111-1.274-0.32l0.174-0.535c0.254,0.16,0.649,0.304,1.125,0.304
		c0.713,0,1.235-0.376,1.235-1.351v-0.432h-0.016c-0.214,0.359-0.626,0.646-1.22,0.646c-0.95,0-1.632-0.814-1.632-1.887
		c0-1.311,0.848-2.055,1.727-2.055c0.665,0,1.029,0.352,1.196,0.672h0.016l0.031-0.584H180.601z M179.88,172.463
		c0-0.12-0.008-0.224-0.04-0.32c-0.127-0.407-0.467-0.743-0.974-0.743c-0.666,0-1.141,0.567-1.141,1.464
		c0,0.759,0.38,1.391,1.133,1.391c0.427,0,0.815-0.271,0.966-0.72c0.039-0.12,0.056-0.256,0.056-0.376V172.463z"/>
	<path d="M182.122,172.998c0.017,0.952,0.618,1.344,1.314,1.344c0.499,0,0.801-0.088,1.062-0.199l0.119,0.503
		c-0.246,0.112-0.665,0.24-1.275,0.24c-1.18,0-1.885-0.784-1.885-1.951s0.682-2.087,1.798-2.087c1.251,0,1.584,1.111,1.584,1.823
		c0,0.144-0.016,0.256-0.023,0.327H182.122z M184.166,172.495c0.008-0.448-0.183-1.144-0.967-1.144
		c-0.705,0-1.014,0.656-1.069,1.144H184.166z"/>
</g>
</svg>
